<?xml version="1.0" standalone="no"?>
<!DOCTYPE svg PUBLIC "-//W3C//DTD SVG 20010904//EN"
 "http://www.w3.org/TR/2001/REC-SVG-20010904/DTD/svg10.dtd">
<svg version="1.0" xmlns="http://www.w3.org/2000/svg"
 width="500.000000pt" height="500.000000pt" viewBox="0 0 500.000000 500.000000"
 preserveAspectRatio="xMidYMid meet">

<g transform="translate(0.000000,500.000000) scale(0.100000,-0.100000)"
fill="#000000" stroke="none">
<path d="M2492 4678 c-78 -43 -170 -129 -221 -207 -67 -104 -121 -197 -121
-207 0 -5 -10 -20 -21 -34 l-20 -25 6 40 c7 43 75 153 182 293 34 46 63 85 63
87 0 2 -15 -1 -32 -7 -44 -14 -82 -51 -103 -98 -20 -45 -165 -164 -173 -142
-2 7 -11 20 -20 29 -16 15 -18 12 -31 -45 -12 -51 -12 -73 -1 -129 16 -87 10
-123 -12 -73 -8 19 -22 41 -31 48 -15 13 -16 13 -75 -68 -2 -2 -6 1 -11 8 -5
8 -16 9 -39 3 -29 -9 -33 -7 -38 15 -7 29 -10 29 -67 5 -41 -18 -46 -24 -60
-73 -39 -142 -48 -231 -37 -359 13 -164 23 -220 54 -302 14 -37 26 -75 26 -85
0 -10 9 -25 20 -35 36 -30 23 -50 -14 -22 -26 20 -38 19 -64 -5 -32 -30 -29
-108 11 -267 26 -99 44 -148 75 -200 58 -94 97 -136 123 -128 29 10 56 -19 64
-68 20 -127 60 -242 112 -325 29 -46 33 -61 33 -120 0 -79 -47 -247 -84 -302
-31 -45 -63 -135 -71 -203 l-7 -53 48 -40 c27 -21 69 -60 94 -86 63 -65 158
-86 260 -58 25 7 54 12 65 12 35 1 128 -22 170 -41 47 -23 104 -32 125 -21 9
5 32 33 53 63 36 52 38 58 44 164 5 92 3 113 -11 135 l-16 25 87 6 c112 7 215
39 242 74 27 33 27 48 0 29 -17 -12 -49 -13 -173 -9 -173 6 -224 21 -251 72
-19 38 -23 100 -6 111 7 4 72 17 145 29 200 33 216 39 232 77 8 18 14 35 14
37 0 3 -51 2 -114 -1 -153 -6 -176 -1 -208 47 l-26 39 112 7 c126 8 184 17
276 45 36 10 77 21 93 25 65 13 17 21 -110 18 -161 -4 -145 -4 -298 3 -78 4
-126 11 -139 20 -14 9 -48 14 -101 14 -96 0 -115 10 -151 83 -15 29 -43 75
-63 102 -35 47 -113 175 -155 255 -10 19 -36 63 -58 97 -33 51 -39 68 -33 90
l7 28 11 -25 c61 -146 92 -187 178 -230 112 -57 258 -57 371 0 l60 30 -6 -28
c-4 -15 -11 -59 -17 -99 -10 -68 -9 -74 12 -104 32 -46 110 -79 186 -79 57 0
65 3 122 46 33 25 70 57 81 71 29 37 10 52 -30 23 -25 -18 -41 -21 -76 -17
-54 6 -87 26 -120 76 -23 36 -25 48 -29 177 -2 77 -6 164 -10 194 l-7 55 36
18 c44 20 92 21 126 3 21 -12 26 -26 37 -101 20 -142 80 -226 186 -261 65 -22
184 -15 247 14 62 29 125 115 150 207 11 38 29 98 40 132 33 102 29 110 -55
132 -27 7 -54 16 -59 21 -12 12 33 105 71 150 14 18 29 48 33 69 4 24 11 36
22 35 16 -1 15 -5 33 216 2 30 2 46 -2 35 -3 -11 -16 -31 -29 -44 -20 -19 -27
-21 -39 -11 -19 15 -19 36 -1 86 7 22 16 71 19 109 5 56 4 64 -4 39 l-11 -30
-56 7 c-52 7 -59 6 -74 -14 -17 -22 -18 -22 -18 21 0 23 -3 42 -7 42 -5 0 -18
-22 -30 -48 -21 -47 -21 -47 -22 -15 -1 21 -8 36 -20 43 -28 14 -51 12 -51 -4
0 -21 -49 -76 -67 -76 -12 0 -14 9 -9 40 19 131 19 127 1 102 -14 -19 -22 -22
-52 -16 -36 7 -36 7 -28 -22 15 -57 12 -68 -30 -89 -21 -11 -45 -26 -53 -32
-7 -7 -22 -13 -32 -13 -17 0 -18 4 -8 31 6 17 9 72 6 124 -4 90 -3 94 17 92
15 -2 21 5 23 25 3 24 -1 28 -32 33 -19 4 -39 12 -44 19 -12 14 -51 146 -50
166 1 8 0 30 0 48 -2 31 -4 33 -37 30 -32 -2 -42 5 -108 73 -71 75 -137 121
-189 133 -22 5 -28 3 -28 -10 0 -17 53 -74 69 -74 6 0 11 -4 11 -8 0 -5 24
-25 53 -45 63 -44 143 -124 151 -153 6 -20 -1 -25 -66 -50 -53 -20 -86 -41
-121 -76 -44 -44 -52 -48 -81 -43 -50 11 -53 21 -18 70 18 25 32 52 32 60 0 8
7 15 15 15 8 0 15 4 15 8 0 5 9 20 21 33 l21 24 -29 6 c-57 13 -94 8 -169 -21
-42 -17 -96 -33 -120 -37 -47 -6 -71 -30 -112 -108 -11 -22 -27 -49 -36 -60
-13 -17 -17 -18 -26 -5 -19 28 -10 56 46 145 69 110 171 222 252 276 88 59 83
95 -6 47z m443 -452 c25 -78 27 -95 21 -178 -7 -101 -23 -135 -57 -118 -10 6
-35 10 -56 10 -25 0 -53 10 -83 30 -25 16 -56 30 -69 30 l-24 0 7 105 c4 58
12 122 19 143 11 34 15 37 52 37 42 0 92 22 115 50 13 16 15 16 31 -3 9 -12
29 -59 44 -106z m-485 -209 c0 -17 -59 -97 -71 -97 -14 0 -11 14 17 64 24 43
54 62 54 33z m745 -166 c-4 -12 -15 -21 -27 -21 -18 0 -19 2 -7 18 29 36 45
38 34 3z m-792 -73 c13 -40 32 -96 42 -125 15 -47 20 -53 52 -59 22 -4 64 1
116 14 45 12 97 24 115 27 19 4 66 22 106 40 39 18 95 36 124 40 l52 7 0 -49
c0 -27 2 -52 5 -55 6 -6 14 -5 187 32 90 19 114 29 147 57 23 19 42 29 46 23
3 -5 13 -40 21 -77 9 -38 20 -86 26 -108 5 -22 12 -77 15 -122 l5 -83 -113 0
c-85 0 -110 3 -102 11 7 7 29 13 50 14 61 3 63 4 57 20 -4 10 -14 13 -30 9
-21 -5 -24 -3 -24 19 0 24 -3 25 -37 21 -61 -7 -80 -13 -167 -54 -84 -40 -96
-52 -96 -95 0 -42 -19 -50 -113 -47 l-86 3 -6 32 c-10 46 -50 84 -98 92 -22 4
-72 18 -111 32 -90 31 -206 40 -297 23 -66 -13 -71 -12 -97 7 -19 14 -32 38
-43 82 -11 43 -13 61 -5 61 19 0 80 70 96 110 14 34 118 168 131 169 4 1 18
-32 32 -71z m1054 -17 c-9 -3 -46 36 -47 51 0 3 8 8 18 10 19 4 47 -54 29 -61z
m108 -41 c-5 -15 -10 -19 -17 -12 -5 5 -7 20 -3 32 5 15 10 19 17 12 5 -5 7
-20 3 -32z m-1495 -9 c0 -26 -16 -35 -24 -15 -10 25 -7 34 9 34 8 0 15 -9 15
-19z m-162 -428 c-10 -2 -26 -2 -35 0 -10 3 -2 5 17 5 19 0 27 -2 18 -5z m85
-10 c-13 -2 -33 -2 -45 0 -13 2 -3 4 22 4 25 0 35 -2 23 -4z m1482 -159 l7
-156 -29 -36 c-78 -98 -242 -109 -325 -22 -70 74 -97 207 -57 281 12 23 12 23
28 -12 16 -33 18 -34 81 -37 57 -3 67 0 82 19 10 11 18 36 18 55 0 19 4 34 9
34 15 0 61 -49 61 -65 0 -42 62 21 64 65 1 25 5 30 27 30 l27 0 7 -156z m-295
112 c0 -21 -24 -36 -48 -29 -27 7 -28 18 -4 32 25 15 52 13 52 -3z m-742 -18
c-2 -18 -10 -23 -33 -23 -34 0 -48 30 -18 38 43 11 54 7 51 -15z m-78 -26 c0
-63 15 -73 94 -70 66 3 69 4 87 36 25 47 26 48 44 13 9 -18 20 -29 25 -26 17
11 59 -18 70 -48 31 -91 -18 -199 -115 -250 -54 -28 -189 -30 -257 -4 -79 30
-138 116 -153 220 l-7 48 38 -17 c54 -23 136 -38 168 -30 34 8 26 20 -27 44
-43 19 -80 52 -58 52 6 0 11 6 11 14 0 17 46 56 66 56 9 0 14 -13 14 -38z
m140 -22 c0 -5 -2 -10 -4 -10 -3 0 -8 5 -11 10 -3 6 -1 10 4 10 6 0 11 -4 11
-10z m3 -866 c18 -6 11 -44 -9 -44 -17 0 -25 15 -18 34 7 18 7 18 27 10z"/>
<path d="M3136 4469 c-8 -19 -17 -52 -20 -74 -3 -25 -3 -31 2 -15 l8 24 22
-31 c12 -17 22 -37 22 -43 0 -20 54 -99 68 -100 7 0 16 -10 21 -22 8 -22 8
-22 35 6 14 16 26 35 26 42 0 7 3 20 6 29 5 11 0 18 -15 22 -19 5 -21 12 -19
63 3 72 -28 119 -79 119 -17 1 -39 4 -47 7 -12 4 -20 -3 -30 -27z"/>
<path d="M3367 4346 c-5 -15 -6 -31 -3 -34 8 -8 18 25 14 45 -3 13 -6 10 -11
-11z"/>
<path d="M3101 4334 c0 -11 3 -14 6 -6 3 7 2 16 -1 19 -3 4 -6 -2 -5 -13z"/>
<path d="M3250 2170 c-18 -28 -30 -53 -27 -56 6 -7 67 77 67 93 0 21 -6 15
-40 -37z"/>
<path d="M3193 2078 c-24 -32 -64 -110 -61 -119 2 -6 20 21 41 60 35 66 43 89
20 59z"/>
<path d="M1178 1770 c0 -25 -2 -67 -2 -95 -1 -27 -5 -56 -10 -64 -5 -8 -4 -16
5 -22 8 -5 10 -9 6 -9 -22 0 -67 44 -77 75 -14 43 -30 45 -30 4 0 -33 11 -45
120 -143 30 -27 107 -98 172 -158 64 -60 136 -124 160 -143 23 -19 79 -62 123
-97 43 -35 96 -74 116 -88 20 -14 76 -54 125 -89 48 -35 122 -81 163 -103 42
-22 84 -47 94 -56 9 -8 20 -12 23 -9 4 3 26 -5 49 -18 54 -32 65 -31 65 4 0
23 -10 38 -47 68 -60 47 -91 79 -119 119 -21 31 -21 31 45 -13 36 -25 75 -54
86 -66 l20 -22 3 52 c4 67 23 85 56 54 19 -18 27 -41 37 -106 8 -57 16 -82 24
-79 6 3 18 -2 25 -11 7 -8 18 -15 25 -15 6 0 23 -9 36 -21 13 -12 47 -36 75
-55 55 -37 90 -71 82 -80 -8 -8 -166 73 -209 107 -20 16 -40 29 -43 29 -13 0
-5 -39 12 -58 16 -20 190 -92 222 -92 8 0 29 -8 45 -18 30 -19 85 -36 85 -28
0 14 -48 85 -77 114 -18 18 -33 37 -33 43 0 17 36 -9 78 -56 22 -25 44 -45 50
-45 5 0 15 -7 22 -15 11 -13 10 -14 -5 -9 -13 5 -16 2 -13 -12 2 -15 14 -19
62 -22 32 -1 56 1 54 5 -2 4 -16 33 -31 64 -17 34 -46 71 -75 96 -26 23 -64
61 -82 87 -19 25 -39 46 -43 46 -5 0 -5 -4 -2 -10 12 -20 -7 -9 -37 20 -16 16
-38 30 -48 30 -9 0 -23 7 -30 15 -7 8 -21 15 -31 15 -10 0 -26 11 -35 24 -8
14 -22 22 -29 20 -7 -3 -16 3 -19 13 -16 51 -113 109 -162 97 -18 -5 -24 -2
-24 10 0 9 -4 16 -9 16 -9 0 -111 75 -146 107 -11 10 -27 23 -36 28 -57 35
-99 66 -99 74 0 5 -6 8 -14 7 -8 0 -36 18 -62 42 -80 70 -126 102 -153 108
-14 3 -49 16 -78 30 -50 23 -73 29 -73 19 0 -2 9 -19 20 -37 11 -18 20 -36 20
-40 0 -4 -33 15 -73 42 -41 28 -78 50 -84 50 -5 0 -39 34 -74 76 -35 42 -84
99 -108 128 -24 28 -52 65 -62 81 l-19 30 -2 -45z m472 -375 c0 -15 -21 -12
-30 5 -11 20 -10 21 9 10 12 -6 21 -13 21 -15z m67 -55 c5 0 14 -9 21 -20 7
-12 8 -20 2 -20 -5 0 -10 5 -10 10 0 6 -6 10 -14 10 -14 0 -56 50 -56 67 0 4
12 -4 25 -19 13 -16 28 -28 32 -28z m75 -57 c30 -36 30 -47 0 -19 -18 17 -32
31 -32 33 0 9 19 1 32 -14z m78 -63 c0 -15 -5 -12 -26 11 -19 22 -19 22 4 10
12 -6 22 -16 22 -21z"/>
<path d="M3192 1468 c-9 -11 -24 -28 -32 -37 -8 -9 -24 -33 -35 -54 -11 -21
-33 -52 -48 -69 -22 -24 -26 -33 -15 -39 9 -6 7 -9 -9 -9 -13 0 -23 -6 -23
-12 -1 -7 -11 -26 -24 -42 -20 -24 -27 -26 -44 -17 -23 12 -41 -2 -20 -15 9
-6 5 -10 -12 -14 -14 -3 -25 -10 -25 -15 -2 -41 -91 -158 -117 -152 -18 3 -22
-32 -5 -51 26 -30 47 -80 47 -112 0 -16 9 -39 19 -49 26 -26 51 -75 51 -99 0
-36 13 -32 38 10 14 24 32 52 41 63 9 11 25 38 36 60 10 22 33 65 51 95 18 30
35 66 39 80 8 25 8 25 -14 6 -11 -11 -21 -24 -21 -29 0 -6 -11 -25 -25 -43
-14 -18 -25 -39 -26 -46 -1 -18 -17 22 -18 45 -1 9 8 26 19 37 11 11 20 22 20
25 0 13 93 155 101 155 6 0 7 5 4 11 -4 6 2 13 14 16 12 3 21 13 21 23 0 10 9
20 21 23 14 4 18 10 13 19 -12 19 -12 49 0 54 6 2 12 16 12 29 1 14 9 40 17
58 20 42 22 56 13 90 -10 33 -39 36 -64 5z"/>
<path d="M2960 1260 c0 -5 5 -10 11 -10 5 0 7 5 4 10 -3 6 -8 10 -11 10 -2 0
-4 -4 -4 -10z"/>
<path d="M3313 1224 c-18 -8 -44 -31 -58 -53 -29 -43 -47 -139 -36 -190 6 -31
17 -40 109 -88 7 -3 -62 -99 -110 -152 -27 -29 -46 -56 -43 -60 7 -6 108 98
138 143 23 34 33 27 42 -30 3 -25 9 -44 11 -41 7 6 -15 143 -32 201 -8 27 -21
57 -30 67 -12 13 -15 29 -11 55 8 45 23 64 53 64 20 0 24 -7 35 -60 9 -47 15
-60 28 -58 13 3 15 14 12 63 -3 65 -19 111 -45 138 -20 20 -21 20 -63 1z"/>
<path d="M2940 1220 c0 -5 5 -10 10 -10 6 0 10 5 10 10 0 6 -4 10 -10 10 -5 0
-10 -4 -10 -10z"/>
<path d="M441 1044 c0 -11 3 -14 6 -6 3 7 2 16 -1 19 -3 4 -6 -2 -5 -13z"/>
<path d="M3127 1043 c-4 -3 -7 -11 -7 -17 0 -6 5 -5 12 2 6 6 9 14 7 17 -3 3
-9 2 -12 -2z"/>
<path d="M450 985 c0 -5 11 -32 24 -60 26 -53 86 -237 86 -262 0 -8 14 -44 30
-80 17 -35 30 -68 30 -72 0 -5 8 -19 19 -32 10 -13 40 -71 66 -129 44 -95 92
-175 133 -223 9 -10 17 -26 18 -35 2 -9 7 -18 13 -20 5 -2 15 -19 21 -38 10
-28 16 -34 40 -34 38 0 43 10 20 45 -10 15 -16 33 -14 39 2 6 -20 36 -51 66
-50 49 -72 82 -44 64 13 -7 -21 48 -35 57 -5 4 -5 12 -2 18 4 6 -6 28 -23 48
-17 21 -31 45 -31 54 0 9 -9 28 -20 42 -11 14 -20 29 -20 35 0 5 -18 40 -39
78 -56 97 -111 207 -111 220 0 15 -61 149 -89 194 -11 19 -21 31 -21 25z"/>
<path d="M2715 773 c144 -126 154 -137 171 -190 9 -29 21 -53 25 -53 14 0 10
23 -6 44 -8 11 -15 26 -15 34 0 28 -166 192 -193 192 -7 0 2 -12 18 -27z"/>
<path d="M2956 685 c-26 -34 -28 -40 -17 -75 6 -21 18 -41 27 -44 32 -12 143
39 144 67 0 11 -25 8 -37 -4 -6 -6 -17 -8 -23 -4 -9 6 -9 9 0 15 9 5 9 9 1 14
-6 4 -11 2 -11 -3 0 -12 -33 -15 -43 -4 -4 3 -2 13 5 20 8 10 8 17 1 21 -5 4
-12 13 -14 21 -3 9 -15 1 -33 -24z"/>
<path d="M3145 659 c-4 -6 -5 -12 -2 -15 2 -3 7 2 10 11 7 17 1 20 -8 4z"/>
<path d="M3372 645 c0 -16 2 -22 5 -12 2 9 2 23 0 30 -3 6 -5 -1 -5 -18z"/>
<path d="M3381 544 c0 -11 3 -14 6 -6 3 7 2 16 -1 19 -3 4 -6 -2 -5 -13z"/>
<path d="M3392 470 c0 -19 2 -27 5 -17 2 9 2 25 0 35 -3 9 -5 1 -5 -18z"/>
<path d="M865 190 c3 -5 11 -10 16 -10 6 0 7 5 4 10 -3 6 -11 10 -16 10 -6 0
-7 -4 -4 -10z"/>
<path d="M4325 128 c-20 -84 -15 -107 16 -68 26 34 34 67 21 93 -6 12 -12 29
-15 37 -2 8 -12 -20 -22 -62z"/>
<path d="M770 126 c0 -2 7 -9 15 -16 13 -11 14 -10 9 4 -5 14 -24 23 -24 12z"/>
<path d="M806 65 c4 -8 10 -15 15 -15 5 0 9 -9 9 -20 0 -12 7 -20 16 -20 14 0
14 3 4 15 -7 8 -9 15 -5 15 5 0 0 9 -10 20 -21 24 -37 26 -29 5z"/>
</g>
</svg>
